Coordinates
version=1
nRows=6
nColumns=34
inDegrees=yes

Units are S.I. units (second, meters, Newtons, ...)
Angles are in degrees.

endheader
time	pelvis_tilt	pelvis_list	pelvis_rotation	pelvis_tx	pelvis_ty	pelvis_tz	hip_flexion_r	hip_adduction_r	hip_rotation_r	knee_angle_r	ankle_angle_r	subtalar_angle_r	mtp_angle_r	hip_flexion_l	hip_adduction_l	hip_rotation_l	knee_angle_l	socket_flexion	socket_adduction	socket_rotation	socket_tx	socket_ty	socket_tz	pros_ankle_rx	pros_ankle_ry	pros_ankle_rz	pros_ankle_tx	pros_ankle_ty	pros_ankle_tz	foot_flex	lumbar_extension	lumbar_bending	lumbar_rotation
      0.30000000	     -3.58785893	     -4.56977643	     -4.34465957	     -0.39711106	      1.03267230	      0.35945627	     18.31034317	      2.67965907	     -3.94252863	    -67.42234337	     -2.67104375	      7.57689604	     16.93023919	     14.98332598	     -6.18058651	     -4.06207434	    -12.85189381	      9.38743787	      1.70128636	      3.00402037	      0.03618929	     -0.02589493	     -0.02237708	      0.00000000	      0.00000000	      0.00000000	      0.00000000	      0.00000000	      0.00000000	      4.51320444	    -14.99611292	     -3.57762618	      3.77080633
      0.30416667	     -3.56199666	     -4.64650819	     -4.22850764	     -0.39182063	      1.03336354	      0.35914880	     18.86914050	      2.74629186	     -4.11601323	    -67.32782615	     -2.30451127	      7.48175441	     16.95235038	     14.60314060	     -6.17183269	     -4.10037686	    -12.79531639	      9.32794339	      1.62895573	      3.11937218	      0.03631794	     -0.02580715	     -0.02193018	      0.00000000	      0.00000000	      0.00000000	      0.00000000	      0.00000000	      0.00000000	      4.68175945	    -15.08656974	     -3.51390098	      3.74040538
      0.30833333	     -3.42780213	     -4.67625866	     -4.12038612	     -0.38632419	      1.03416793	      0.35904344	     19.27191450	      2.81328022	     -4.20842564	    -67.23850699	     -0.94974012	      7.28246738	     17.03967449	     14.02312244	     -6.19474626	     -4.20108738	    -12.70819229	      9.22429890	      1.66170150	      3.26116536	      0.03599044	     -0.02585155	     -0.02225812	      0.00000000	      0.00000000	      0.00000000	      0.00000000	      0.00000000	      0.00000000	      4.81756350	    -15.00888741	     -3.34035698	      3.52739336
      0.31250000	     -3.33308795	     -4.72723672	     -4.04033719	     -0.38097532	      1.03494037	      0.35893544	     19.72419199	      2.90149105	     -4.29328516	    -67.06087339	     -0.06173364	      7.27035732	     17.07412505	     13.49415217	     -6.23047520	     -4.27322395	    -12.62329723	      9.12173091	      1.67251321	      3.36871626	      0.03563785	     -0.02586837	     -0.02242813	      0.00000000	      0.00000000	      0.00000000	      0.00000000	      0.00000000	      0.00000000	      4.95750545	    -15.07446032	     -3.24433696	      3.32466114
      0.31666667	     -3.32103329	     -4.78903992	     -3.94048846	     -0.37582487	      1.03564597	      0.35872010	     20.25874005	      2.97685039	     -4.43373235	    -66.76142270	      0.19990856	      7.23916892	     17.08714218	     13.16619368	     -6.22035547	     -4.31696653	    -12.58995856	      9.08297251	      1.61355411	      3.43495775	      0.03594000	     -0.02560366	     -0.02199270	      0.00000000	      0.00000000	      0.00000000	      0.00000000	      0.00000000	      0.00000000	      5.06993748	    -15.19823881	     -3.23029243	      3.28751898
      0.32083333	     -3.18978812	     -4.85350695	     -3.85452820	     -0.37036580	      1.03642739	      0.35854748	     20.62604584	      3.05464799	     -4.55010555	    -66.49561684	      1.43365347	      7.13269225	     17.16327140	     12.54520040	     -6.26259174	     -4.39978060	    -12.47141561	      8.95633649	      1.62929996	      3.57288330	      0.03522910	     -0.02576013	     -0.02214286	      0.00000000	      0.00000000	      0.00000000	      0.00000000	      0.00000000	      0.00000000	      5.22977587	    -15.09670072	     -2.97761996	      3.06310139
